<?xml version="1.0" encoding="UTF-8"?>
<svg width="33px" height="30px" viewBox="0 0 33 30" version="1.1" xmlns="http://www.w3.org/2000/svg" xmlns:xlink="http://www.w3.org/1999/xlink">
    <title>Path 2</title>
    <g id="Page-1" stroke="none" stroke-width="1" fill="none" fill-rule="evenodd">
        <g id="VOD-player__Mobile" transform="translate(-297.000000, -156.000000)" fill="#FFFFFF" fill-rule="nonzero">
            <path d="M315.162,156.913 C318.926,156.913 322.463,158.378 325.124,161.039 C330.616,166.531 330.616,175.469 325.126,180.962 C322.432,183.654 318.826,185.09 315.154,185.09 C313.435,185.09 311.702,184.775 310.041,184.128 L310.041,184.128 L311.13,181.333 C315.233,182.929 319.893,181.951 323.005,178.841 C327.327,174.518 327.327,167.483 323.005,163.16 C320.91,161.065 318.126,159.912 315.164,159.912 C312.202,159.912 309.418,161.066 307.324,163.16 C305.039,165.444 303.916,168.588 304.125,171.744 L304.125,171.744 L306.092,169.777 L308.213,171.898 L303.763,176.348 C303.47,176.641 303.086,176.787 302.702,176.787 C302.318,176.787 301.934,176.641 301.641,176.348 L301.641,176.348 L297.19,171.898 L299.311,169.777 L301.094,171.559 C300.943,167.68 302.391,163.848 305.201,161.039 C307.861,158.378 311.399,156.913 315.162,156.913 Z M317.831,167 C319.019,167 319.843,167.53 320.337,168.283 C320.854,169.071 321.019,170.025 321.019,171.001 C321.019,171.977 320.854,172.93 320.337,173.719 C319.842,174.471 319.019,175 317.831,175 C316.642,175 315.819,174.471 315.313,173.718 C314.795,172.93 314.642,171.976 314.642,171 C314.643,170.024 314.795,169.071 315.313,168.283 C315.819,167.53 316.642,167 317.831,167 Z M313.18,167.176 L313.18,174.812 L311.568,174.812 L311.568,169.706 L309.733,169.706 L309.733,168.612 C310.85,168.601 311.627,167.977 311.78,167.176 L311.78,167.176 L313.18,167.176 Z M317.83,168.435 C317.277,168.435 316.912,168.681 316.677,169.058 C316.383,169.517 316.265,170.2 316.265,171 C316.265,171.8 316.383,172.482 316.677,172.941 C316.913,173.317 317.278,173.565 317.83,173.565 C318.394,173.565 318.735,173.318 318.971,172.941 C319.277,172.482 319.394,171.8 319.394,171 C319.394,170.2 319.276,169.517 318.971,169.058 C318.735,168.682 318.394,168.435 317.83,168.435 Z" id="Path-2"></path>
        </g>
    </g>
</svg>