<?xml version="1.0" encoding="UTF-8"?>
<svg width="32px" height="30px" viewBox="0 0 32 30" version="1.1" xmlns="http://www.w3.org/2000/svg" xmlns:xlink="http://www.w3.org/1999/xlink">
    <title>Path 3</title>
    <g id="Page-1" stroke="none" stroke-width="1" fill="none" fill-rule="evenodd">
        <g id="VOD-player__Mobile" transform="translate(-483.000000, -157.000000)" fill="#FFFFFF" fill-rule="nonzero">
            <path d="M487.13,162.039 C492.62,156.546 501.56,156.546 507.05,162.039 C509.86,164.848 511.31,168.68 511.16,172.558 L511.16,172.558 L512.94,170.776 L515.06,172.897 L510.61,177.347 C510.32,177.64 509.93,177.786 509.55,177.786 C509.16,177.786 508.78,177.64 508.49,177.347 L508.49,177.347 L504.04,172.897 L506.16,170.776 L508.13,172.744 C508.34,169.588 507.21,166.445 504.93,164.16 C500.61,159.837 493.57,159.837 489.25,164.16 C484.92,168.483 484.92,175.518 489.25,179.841 C492.36,182.953 497.02,183.932 501.12,182.333 L501.12,182.333 L502.21,185.128 C500.55,185.776 498.82,186.09 497.1,186.09 C493.42,186.09 489.82,184.655 487.13,181.962 C481.63,176.469 481.63,167.532 487.13,162.039 Z M499.33,168 C500.52,168 501.34,168.53 501.83,169.283 C502.35,170.071 502.52,171.025 502.52,172.001 C502.52,172.977 502.35,173.93 501.83,174.719 C501.34,175.471 500.52,176 499.33,176 C498.14,176 497.32,175.471 496.81,174.718 C496.29,173.93 496.14,172.976 496.14,172 C496.14,171.024 496.29,170.071 496.81,169.283 C497.32,168.53 498.14,168 499.33,168 Z M494.68,168.176 L494.68,175.812 L493.07,175.812 L493.07,170.706 L491.23,170.706 L491.23,169.612 C492.35,169.601 493.13,168.977 493.28,168.176 L493.28,168.176 L494.68,168.176 Z M499.33,169.435 C498.78,169.435 498.41,169.681 498.18,170.058 C497.88,170.517 497.76,171.2 497.76,172 C497.76,172.8 497.88,173.482 498.18,173.941 C498.41,174.317 498.78,174.565 499.33,174.565 C499.89,174.565 500.23,174.318 500.47,173.941 C500.78,173.482 500.89,172.8 500.89,172 C500.89,171.2 500.77,170.517 500.47,170.058 C500.23,169.682 499.89,169.435 499.33,169.435 Z" id="Path-3"></path>
        </g>
    </g>
</svg>