<?xml version="1.0" encoding="UTF-8"?>
<svg width="20px" height="22px" viewBox="0 0 20 22" version="1.1" xmlns="http://www.w3.org/2000/svg" xmlns:xlink="http://www.w3.org/1999/xlink">
    <title>Path</title>
    <g id="Page-1" stroke="none" stroke-width="1" fill="none" fill-rule="evenodd">
        <g id="Home" transform="translate(-96.000000, -767.000000)" fill="#FFFFFF" fill-rule="nonzero">
            <g id="Group" transform="translate(1.000000, 750.000000)">
                <path d="M113.8636,38.5 L107.6591,38.5 C107.1698,38.5 106.7727,38.108 106.7727,37.625 L106.7727,32.083 L103.2273,32.083 L103.2273,37.625 C103.2273,38.108 102.8302,38.5 102.3409,38.5 L96.1364,38.5 C95.6471,38.5 95.25,38.108 95.25,37.625 L95.25,26.25 C95.25,26.001 95.3564,25.766 95.5431,25.599 L104.4067,17.724 C104.7436,17.425 105.2564,17.425 105.5933,17.724 L114.4569,25.599 C114.6437,25.765 114.75,26.001 114.75,26.25 L114.75,37.625 C114.75,38.108 114.3529,38.5 113.8636,38.5 Z" id="Path"></path>
            </g>
        </g>
    </g>
</svg>