<?xml version="1.0" encoding="UTF-8"?>
<svg width="12px" height="16px" viewBox="0 0 12 16" version="1.1" xmlns="http://www.w3.org/2000/svg" xmlns:xlink="http://www.w3.org/1999/xlink">
    <title>Group</title>
    <g id="Page-1" stroke="none" stroke-width="1" fill="none" fill-rule="evenodd">
        <g id="MVP-Testing-PDP01" transform="translate(-49.000000, -404.000000)" fill-rule="nonzero">
            <g id="Group" transform="translate(49.000000, 404.000000)">
                <path d="M0.0002,4.352 C-0.0558,1.746 11.9601,1.378 11.9601,4.302 L10.6922,13.602 C9.7904,16.787 2.1482,16.804 1.3179,13.627 L0.0002,4.352 Z" id="Path" fill="#FA3106"></path>
                <path d="M0.7207,5.816 L1.7898,13.717 C2.2013,14.252 2.7973,14.592 2.9338,14.668 L2.1133,6.538 C1.6984,6.371 0.9418,5.995 0.7207,5.816 Z M3.0704,6.748 L3.7167,14.917 C4.3007,15.231 5.0258,15.319 5.5818,15.34 L5.4327,6.998 C5.0281,6.995 3.7944,6.922 3.0704,6.748 Z M11.2515,5.841 L10.1824,13.742 C9.7709,14.278 9.175,14.618 9.0384,14.693 L9.8589,6.562 C10.2738,6.395 11.0304,6.019 11.2515,5.841 Z M8.9012,6.774 L8.255,14.942 C7.671,15.256 6.9458,15.344 6.3898,15.365 L6.539,7.023 C6.9441,7.019 8.1778,6.946 8.9012,6.774 Z" id="Shape" fill="#FFFFFF"></path>
                <path d="M1.2426,4.175 C1.6888,4.175 2.0506,3.813 2.0506,3.367 C2.0506,2.92 1.6888,2.559 1.2426,2.559 C0.7963,2.559 0.4346,2.92 0.4346,3.367 C0.4346,3.813 0.7963,4.175 1.2426,4.175 Z" id="Path" fill="#FFD600"></path>
                <path d="M2.2873,3.73 C2.72,3.73 3.0708,3.379 3.0708,2.947 C3.0708,2.514 2.72,2.163 2.2873,2.163 C1.8547,2.163 1.5039,2.514 1.5039,2.947 C1.5039,3.379 1.8547,3.73 2.2873,3.73 Z" id="Path" fill="#FFD600"></path>
                <path d="M3.2755,2.709 C3.6634,2.709 3.9778,2.395 3.9778,2.007 C3.9778,1.619 3.6634,1.305 3.2755,1.305 C2.8877,1.305 2.5732,1.619 2.5732,2.007 C2.5732,2.395 2.8877,2.709 3.2755,2.709 Z" id="Path" fill="#FFD600"></path>
                <path d="M3.8233,2.176 C4.2181,2.176 4.5381,1.856 4.5381,1.461 C4.5381,1.066 4.2181,0.746 3.8233,0.746 C3.4284,0.746 3.1084,1.066 3.1084,1.461 C3.1084,1.856 3.4284,2.176 3.8233,2.176 Z" id="Path" fill="#FFD600"></path>
                <path d="M5.0211,2.275 C5.3439,2.275 5.6057,2.013 5.6057,1.69 C5.6057,1.367 5.3439,1.105 5.0211,1.105 C4.6982,1.105 4.4365,1.367 4.4365,1.69 C4.4365,2.013 4.6982,2.275 5.0211,2.275 Z" id="Path" fill="#FFD600"></path>
                <path d="M5.7351,1.539 C6.1438,1.539 6.4751,1.207 6.4751,0.799 C6.4751,0.39 6.1438,0.059 5.7351,0.059 C5.3264,0.059 4.9951,0.39 4.9951,0.799 C4.9951,1.207 5.3264,1.539 5.7351,1.539 Z" id="Path" fill="#FFD600"></path>
                <path d="M6.9305,1.554 C7.3597,1.554 7.7076,1.206 7.7076,0.777 C7.7076,0.348 7.3597,0 6.9305,0 C6.5013,0 6.1533,0.348 6.1533,0.777 C6.1533,1.206 6.5013,1.554 6.9305,1.554 Z" id="Path" fill="#FFD600"></path>
                <path d="M7.7311,1.865 C8.0539,1.865 8.3156,1.603 8.3156,1.28 C8.3156,0.958 8.0539,0.696 7.7311,0.696 C7.4082,0.696 7.1465,0.958 7.1465,1.28 C7.1465,1.603 7.4082,1.865 7.7311,1.865 Z" id="Path" fill="#FFD600"></path>
                <path d="M8.6954,2.463 C9.0833,2.463 9.3977,2.148 9.3977,1.76 C9.3977,1.373 9.0833,1.058 8.6954,1.058 C8.3076,1.058 7.9932,1.373 7.9932,1.76 C7.9932,2.148 8.3076,2.463 8.6954,2.463 Z" id="Path" fill="#FFD600"></path>
                <path d="M9.0326,2.872 C9.3176,2.872 9.5486,2.641 9.5486,2.356 C9.5486,2.071 9.3176,1.84 9.0326,1.84 C8.7476,1.84 8.5166,2.071 8.5166,2.356 C8.5166,2.641 8.7476,2.872 9.0326,2.872 Z" id="Path" fill="#FFD600"></path>
                <path d="M9.5719,3.407 C9.9153,3.407 10.1936,3.129 10.1936,2.785 C10.1936,2.442 9.9153,2.164 9.5719,2.164 C9.2285,2.164 8.9502,2.442 8.9502,2.785 C8.9502,3.129 9.2285,3.407 9.5719,3.407 Z" id="Path" fill="#FFD600"></path>
                <path d="M10.1322,4.427 C10.51,4.427 10.8162,4.12 10.8162,3.743 C10.8162,3.365 10.51,3.059 10.1322,3.059 C9.7545,3.059 9.4482,3.365 9.4482,3.743 C9.4482,4.12 9.7545,4.427 10.1322,4.427 Z" id="Path" fill="#FFD600"></path>
                <path d="M10.0324,3.867 C10.7187,4.199 10.193,3.605 11.3004,4.116 C10.1655,5.934 2.4353,6.118 0.5959,4.178 L0.5713,3.705 L4.2513,1.678 L6.9621,0.895 L8.8021,2.076 L10.0324,3.867 Z" id="Path" fill="#FFD600"></path>
                <path d="M9.9552,3.429 C10.6415,3.761 10.1158,3.167 11.2232,3.678 C10.0884,5.496 2.3581,5.68 0.5187,3.74 L0.4941,3.267 L4.1741,1.24 L6.885,0.457 L8.725,1.638 L9.9552,3.429 Z" id="Path" fill="#FFD600"></path>
            </g>
        </g>
    </g>
</svg>