<?xml version="1.0" encoding="UTF-8"?>
<svg width="21px" height="22px" viewBox="0 0 21 22" version="1.1" xmlns="http://www.w3.org/2000/svg" xmlns:xlink="http://www.w3.org/1999/xlink">
    <title>Shape</title>
    <g id="Page-1" stroke="none" stroke-width="1" fill="none" fill-rule="evenodd" fill-opacity="0.6">
        <g id="Home" transform="translate(-268.000000, -767.000000)" fill="#FFFFFF">
            <g id="Group" transform="translate(1.000000, 750.000000)">
                <path d="M270.481,19.7 C272.119,18.358 274.172,17.627 276.289,17.6289718 C277.49,17.626 278.678,17.862 279.787,18.322 C280.896,18.782 281.903,19.457 282.749,20.309 C284.246,21.806 285.178,23.776 285.385,25.883 C285.592,27.99 285.062,30.104 283.886,31.864 C283.738,32.085 283.582,32.297 283.417,32.503 L287.872,36.957 L286.457,38.371 L282.003,33.917 C281.099,34.643 280.058,35.195 278.931,35.536 C276.905,36.15 274.728,36.042 272.773,35.23 C270.817,34.419 269.203,32.954 268.206,31.086 C267.21,29.219 266.891,27.063 267.306,24.986 C267.721,22.91 268.843,21.042 270.481,19.7 Z M280.825,21.25 C279.546,20.201 277.943,19.628 276.289,19.6289839 C275.349,19.627 274.417,19.811 273.549,20.172 C272.68,20.532 271.892,21.062 271.229,21.729 C270.061,22.899 269.335,24.439 269.174,26.085 C269.014,27.731 269.429,29.382 270.349,30.756 C271.269,32.131 272.637,33.144 274.221,33.623 C275.804,34.101 277.504,34.017 279.031,33.383 C280.559,32.749 281.819,31.605 282.598,30.146 C283.377,28.687 283.626,27.002 283.303,25.381 C282.979,23.759 282.104,22.299 280.825,21.25 Z" id="Shape"></path>
            </g>
        </g>
    </g>
</svg>