<?xml version="1.0" encoding="UTF-8"?>
<svg width="16px" height="16px" viewBox="0 0 16 16" version="1.1" xmlns="http://www.w3.org/2000/svg" xmlns:xlink="http://www.w3.org/1999/xlink">
    <title>Shape</title>
    <g id="Page-1" stroke="none" stroke-width="1" fill="none" fill-rule="evenodd">
        <g id="Group" transform="translate(-330.000000, -72.000000)" fill="#E7E7E7">
            <path d="M341.27,82.225 C341.56,82.518 341.56,82.993 341.26,83.284 C341.12,83.428 340.93,83.5 340.74,83.5 C340.54,83.5 340.35,83.426 340.2,83.28 L338,81.059 L335.78,83.268 C335.63,83.412 335.44,83.485 335.25,83.485 C335.06,83.485 334.86,83.411 334.72,83.264 C334.43,82.972 334.43,82.497 334.72,82.206 L336.94,79.998 L334.73,77.776 C334.44,77.484 334.44,77.009 334.74,76.718 C335.03,76.426 335.5,76.428 335.79,76.722 L338,78.943 L340.23,76.735 C340.52,76.443 340.99,76.445 341.28,76.739 C341.57,77.031 341.57,77.505 341.28,77.796 L339.06,80.004 L341.27,82.225 Z M338,72 C333.58,72 330,75.582 330,80 C330,84.419 333.58,88 338,88 C342.42,88 346,84.419 346,80 C346,75.582 342.42,72 338,72 Z" id="Shape"></path>
        </g>
    </g>
</svg>